<svg width="33" height="33" viewBox="0 0 33 33" fill="none" xmlns="http://www.w3.org/2000/svg">
    <path d="M13.4998 17.9657C13.4998 18.2624 13.4118 18.5524 13.247 18.7991C13.0822 19.0457 12.8479 19.238 12.5738 19.3515C12.2997 19.4651 11.9981 19.4948 11.7072 19.4369C11.4162 19.379 11.1489 19.2361 10.9391 19.0264C10.7294 18.8166 10.5865 18.5493 10.5286 18.2583C10.4707 17.9674 10.5004 17.6658 10.614 17.3917C10.7275 17.1176 10.9198 16.8833 11.1664 16.7185C11.4131 16.5537 11.7031 16.4657 11.9998 16.4657C12.3976 16.4657 12.7792 16.6237 13.0605 16.9051C13.3418 17.1864 13.4998 17.5679 13.4998 17.9657ZM20.9998 16.4657C20.7031 16.4657 20.4131 16.5537 20.1664 16.7185C19.9198 16.8833 19.7275 17.1176 19.614 17.3917C19.5004 17.6658 19.4707 17.9674 19.5286 18.2583C19.5865 18.5493 19.7294 18.8166 19.9391 19.0264C20.1489 19.2361 20.4162 19.379 20.7072 19.4369C20.9981 19.4948 21.2997 19.4651 21.5738 19.3515C21.8479 19.238 22.0822 19.0457 22.247 18.7991C22.4118 18.5524 22.4998 18.2624 22.4998 17.9657C22.4998 17.5679 22.3418 17.1864 22.0605 16.9051C21.7792 16.6237 21.3976 16.4657 20.9998 16.4657ZM30.306 24.5782L21.931 28.292C21.6792 28.4039 21.4072 28.4632 21.1316 28.4661C20.856 28.4691 20.5827 28.4157 20.3286 28.3091C20.0744 28.2026 19.8447 28.0452 19.6536 27.8466C19.4625 27.6481 19.314 27.4125 19.2173 27.1545L18.2035 24.4045C17.6435 24.442 17.0756 24.4611 16.4998 24.462C15.924 24.4628 15.356 24.4436 14.796 24.4045L13.7823 27.1545C13.6854 27.4124 13.5368 27.6478 13.3457 27.8463C13.1546 28.0448 12.9249 28.2021 12.6708 28.3086C12.4167 28.4151 12.1435 28.4686 11.868 28.4657C11.5924 28.4629 11.3204 28.4037 11.0685 28.292L2.69355 24.5782C2.26128 24.3892 1.91016 24.0529 1.70275 23.6291C1.49534 23.2054 1.44513 22.7218 1.56105 22.2645L5.2498 7.71571C5.34715 7.33735 5.55272 6.99558 5.84134 6.73227C6.12997 6.46896 6.48911 6.29553 6.8748 6.23321L11.3823 5.49196C11.8792 5.41204 12.3881 5.51979 12.8099 5.79426C13.2318 6.06873 13.5365 6.49029 13.6648 6.97696L14.0723 8.58196C14.8665 8.50446 15.6756 8.46571 16.4998 8.46571C17.324 8.46571 18.1323 8.50446 18.9248 8.58196L19.3323 6.97696C19.4603 6.49014 19.765 6.0684 20.1869 5.79389C20.6088 5.51938 21.1179 5.41175 21.6148 5.49196L26.1248 6.23321C26.5105 6.29553 26.8696 6.46896 27.1582 6.73227C27.4469 6.99558 27.6524 7.33735 27.7498 7.71571L31.441 22.2632C31.5571 22.721 31.5067 23.2052 31.2988 23.6292C31.0909 24.0533 30.739 24.3896 30.306 24.5782ZM29.4998 22.7507L25.8085 8.21571C25.8085 8.21571 25.8085 8.21571 25.7985 8.21571L21.291 7.46571C21.2878 7.46385 21.2842 7.46286 21.2804 7.46286C21.2767 7.46286 21.273 7.46385 21.2698 7.46571L20.916 8.85821C21.541 8.97571 22.166 9.11571 22.7698 9.28571C23.0078 9.34639 23.2152 9.49255 23.3524 9.69632C23.4895 9.9001 23.5469 10.1472 23.5135 10.3906C23.4801 10.634 23.3584 10.8565 23.1714 11.0158C22.9844 11.1752 22.7454 11.2601 22.4998 11.2545C22.4085 11.2542 22.3177 11.2416 22.2298 11.217C20.3622 10.7102 18.4349 10.4575 16.4998 10.4657C14.5648 10.4571 12.6374 10.7094 10.7698 11.2157C10.6422 11.2552 10.508 11.2686 10.3751 11.2554C10.2423 11.2421 10.1134 11.2024 9.99612 11.1385C9.87885 11.0746 9.77556 10.9879 9.69234 10.8835C9.60912 10.779 9.54767 10.659 9.5116 10.5304C9.47553 10.4018 9.46558 10.2673 9.48234 10.1349C9.49909 10.0024 9.54221 9.87459 9.60915 9.75904C9.67609 9.6435 9.7655 9.54252 9.87209 9.46209C9.97869 9.38165 10.1003 9.32338 10.2298 9.29071C10.8323 9.12071 11.4523 8.98071 12.0823 8.86321L11.7285 7.46571C11.7285 7.46571 11.7285 7.46571 11.7135 7.46571L7.20105 8.20696C7.19736 8.20595 7.19348 8.20595 7.1898 8.20696L3.4998 22.757L11.8748 26.4657C11.879 26.468 11.8837 26.4692 11.8885 26.4692C11.8933 26.4692 11.8981 26.468 11.9023 26.4657L12.7498 24.1807C11.9007 24.0508 11.06 23.8705 10.2323 23.6407C9.98576 23.5619 9.77937 23.3906 9.65651 23.1629C9.53365 22.9351 9.5039 22.6685 9.5735 22.4192C9.6431 22.1699 9.80665 21.9574 10.0297 21.8262C10.2528 21.695 10.5181 21.6554 10.7698 21.7157C12.6373 22.2227 14.5647 22.4749 16.4998 22.4657C18.4349 22.4749 20.3623 22.2227 22.2298 21.7157C22.4852 21.6441 22.7587 21.6769 22.9899 21.8069C23.2212 21.9369 23.3913 22.1534 23.4629 22.4088C23.5345 22.6643 23.5017 22.9377 23.3717 23.1689C23.2418 23.4002 23.0252 23.5704 22.7698 23.642C21.9412 23.8714 21.0997 24.0513 20.2498 24.1807L21.0935 26.4657C21.0976 26.4679 21.1021 26.469 21.1067 26.469C21.1113 26.469 21.1158 26.4679 21.1198 26.4657L29.4998 22.7507Z"
          fill="black"/>
</svg>
