<svg width="33" height="33" viewBox="0 0 33 33" fill="none" xmlns="http://www.w3.org/2000/svg">
    <path d="M16.5 10.4658C15.3133 10.4658 14.1533 10.8177 13.1666 11.477C12.1799 12.1363 11.4108 13.0734 10.9567 14.1697C10.5026 15.2661 10.3838 16.4725 10.6153 17.6364C10.8468 18.8002 11.4182 19.8693 12.2574 20.7085C13.0965 21.5476 14.1656 22.119 15.3295 22.3505C16.4933 22.582 17.6997 22.4632 18.7961 22.0091C19.8925 21.555 20.8295 20.7859 21.4888 19.7992C22.1481 18.8125 22.5 17.6525 22.5 16.4658C22.4983 14.875 21.8657 13.3499 20.7408 12.225C19.616 11.1001 18.0908 10.4675 16.5 10.4658ZM16.5 20.4658C15.7089 20.4658 14.9355 20.2312 14.2777 19.7917C13.6199 19.3522 13.1072 18.7275 12.8045 17.9966C12.5017 17.2656 12.4225 16.4614 12.5769 15.6855C12.7312 14.9095 13.1122 14.1968 13.6716 13.6374C14.231 13.078 14.9437 12.697 15.7196 12.5427C16.4956 12.3883 17.2998 12.4676 18.0307 12.7703C18.7616 13.0731 19.3864 13.5857 19.8259 14.2435C20.2654 14.9013 20.5 15.6747 20.5 16.4658C20.5 17.5267 20.0786 18.5441 19.3284 19.2942C18.5783 20.0444 17.5609 20.4658 16.5 20.4658ZM22.5 3.46582H10.5C8.64409 3.46781 6.86477 4.20594 5.55245 5.51827C4.24012 6.83059 3.50199 8.60991 3.5 10.4658V22.4658C3.50199 24.3217 4.24012 26.1011 5.55245 27.4134C6.86477 28.7257 8.64409 29.4638 10.5 29.4658H22.5C24.3559 29.4638 26.1352 28.7257 27.4476 27.4134C28.7599 26.1011 29.498 24.3217 29.5 22.4658V10.4658C29.498 8.60991 28.7599 6.83059 27.4476 5.51827C26.1352 4.20594 24.3559 3.46781 22.5 3.46582ZM27.5 22.4658C27.5 23.7919 26.9732 25.0637 26.0355 26.0014C25.0979 26.939 23.8261 27.4658 22.5 27.4658H10.5C9.17392 27.4658 7.90215 26.939 6.96447 26.0014C6.02678 25.0637 5.5 23.7919 5.5 22.4658V10.4658C5.5 9.13974 6.02678 7.86797 6.96447 6.93029C7.90215 5.9926 9.17392 5.46582 10.5 5.46582H22.5C23.8261 5.46582 25.0979 5.9926 26.0355 6.93029C26.9732 7.86797 27.5 9.13974 27.5 10.4658V22.4658ZM24.5 9.96582C24.5 10.2625 24.412 10.5525 24.2472 10.7992C24.0824 11.0458 23.8481 11.2381 23.574 11.3516C23.2999 11.4652 22.9983 11.4949 22.7074 11.437C22.4164 11.3791 22.1491 11.2363 21.9393 11.0265C21.7296 10.8167 21.5867 10.5494 21.5288 10.2585C21.4709 9.96748 21.5007 9.66588 21.6142 9.3918C21.7277 9.11771 21.92 8.88344 22.1666 8.71862C22.4133 8.55379 22.7033 8.46582 23 8.46582C23.3978 8.46582 23.7794 8.62386 24.0607 8.90516C24.342 9.18646 24.5 9.568 24.5 9.96582Z"
          fill="black"/>
</svg>
