<svg width="33" height="33" viewBox="0 0 33 33" fill="none" xmlns="http://www.w3.org/2000/svg">
    <path d="M27.5 3.46582H5.5C4.96957 3.46582 4.46086 3.67653 4.08579 4.05161C3.71071 4.42668 3.5 4.93539 3.5 5.46582V27.4658C3.5 27.9963 3.71071 28.505 4.08579 28.88C4.46086 29.2551 4.96957 29.4658 5.5 29.4658H27.5C28.0304 29.4658 28.5391 29.2551 28.9142 28.88C29.2893 28.505 29.5 27.9963 29.5 27.4658V5.46582C29.5 4.93539 29.2893 4.42668 28.9142 4.05161C28.5391 3.67653 28.0304 3.46582 27.5 3.46582ZM27.5 27.4658H5.5V5.46582H27.5V27.4658ZM12.5 14.4658V22.4658C12.5 22.731 12.3946 22.9854 12.2071 23.1729C12.0196 23.3605 11.7652 23.4658 11.5 23.4658C11.2348 23.4658 10.9804 23.3605 10.7929 23.1729C10.6054 22.9854 10.5 22.731 10.5 22.4658V14.4658C10.5 14.2006 10.6054 13.9463 10.7929 13.7587C10.9804 13.5712 11.2348 13.4658 11.5 13.4658C11.7652 13.4658 12.0196 13.5712 12.2071 13.7587C12.3946 13.9463 12.5 14.2006 12.5 14.4658ZM23.5 17.9658V22.4658C23.5 22.731 23.3946 22.9854 23.2071 23.1729C23.0196 23.3605 22.7652 23.4658 22.5 23.4658C22.2348 23.4658 21.9804 23.3605 21.7929 23.1729C21.6054 22.9854 21.5 22.731 21.5 22.4658V17.9658C21.5 17.3028 21.2366 16.6669 20.7678 16.1981C20.2989 15.7292 19.663 15.4658 19 15.4658C18.337 15.4658 17.7011 15.7292 17.2322 16.1981C16.7634 16.6669 16.5 17.3028 16.5 17.9658V22.4658C16.5 22.731 16.3946 22.9854 16.2071 23.1729C16.0196 23.3605 15.7652 23.4658 15.5 23.4658C15.2348 23.4658 14.9804 23.3605 14.7929 23.1729C14.6054 22.9854 14.5 22.731 14.5 22.4658V14.4658C14.5012 14.2209 14.5923 13.9849 14.756 13.8027C14.9197 13.6204 15.1446 13.5046 15.388 13.4772C15.6314 13.4497 15.8764 13.5126 16.0765 13.6538C16.2767 13.795 16.418 14.0048 16.4738 14.2433C17.1502 13.7844 17.9389 13.5184 18.7552 13.474C19.5714 13.4295 20.3844 13.6082 21.1067 13.9909C21.829 14.3736 22.4335 14.9458 22.8551 15.6461C23.2768 16.3464 23.4997 17.1484 23.5 17.9658ZM13 10.9658C13 11.2625 12.912 11.5525 12.7472 11.7992C12.5824 12.0458 12.3481 12.2381 12.074 12.3516C11.7999 12.4652 11.4983 12.4949 11.2074 12.437C10.9164 12.3791 10.6491 12.2363 10.4393 12.0265C10.2296 11.8167 10.0867 11.5494 10.0288 11.2585C9.97094 10.9675 10.0006 10.6659 10.1142 10.3918C10.2277 10.1177 10.42 9.88344 10.6666 9.71862C10.9133 9.55379 11.2033 9.46582 11.5 9.46582C11.8978 9.46582 12.2794 9.62386 12.5607 9.90516C12.842 10.1865 13 10.568 13 10.9658Z"
          fill="black"/>
</svg>
