<svg width="33" height="33" viewBox="0 0 33 33" fill="none" xmlns="http://www.w3.org/2000/svg">
    <path d="M28.5 6.46631H4.5C4.23478 6.46631 3.98043 6.57167 3.79289 6.7592C3.60536 6.94674 3.5 7.20109 3.5 7.46631V24.4663C3.5 24.9967 3.71071 25.5054 4.08579 25.8805C4.46086 26.2556 4.96957 26.4663 5.5 26.4663H27.5C28.0304 26.4663 28.5391 26.2556 28.9142 25.8805C29.2893 25.5054 29.5 24.9967 29.5 24.4663V7.46631C29.5 7.20109 29.3946 6.94674 29.2071 6.7592C29.0196 6.57167 28.7652 6.46631 28.5 6.46631ZM16.5 17.1101L7.07125 8.46631H25.9287L16.5 17.1101ZM12.8387 16.4663L5.5 23.1926V9.74006L12.8387 16.4663ZM14.3188 17.8226L15.8188 19.2038C16.0032 19.3732 16.2446 19.4671 16.495 19.4671C16.7454 19.4671 16.9868 19.3732 17.1712 19.2038L18.6712 17.8226L25.9212 24.4663H7.07125L14.3188 17.8226ZM20.1612 16.4663L27.5 9.73881V23.1938L20.1612 16.4663Z"
          fill="black"/>
</svg>
