<svg width="33" height="33" viewBox="0 0 33 33" fill="none" xmlns="http://www.w3.org/2000/svg">
    <path d="M16.5 8.46582C15.5111 8.46582 14.5444 8.75907 13.7221 9.30847C12.8999 9.85788 12.259 10.6388 11.8806 11.5524C11.5022 12.466 11.4031 13.4714 11.5961 14.4413C11.789 15.4112 12.2652 16.3021 12.9645 17.0014C13.6637 17.7006 14.5546 18.1768 15.5245 18.3697C16.4945 18.5627 17.4998 18.4637 18.4134 18.0852C19.327 17.7068 20.1079 17.0659 20.6573 16.2437C21.2068 15.4214 21.5 14.4547 21.5 13.4658C21.5 12.1397 20.9732 10.868 20.0355 9.93029C19.0979 8.9926 17.8261 8.46582 16.5 8.46582ZM16.5 16.4658C15.9067 16.4658 15.3266 16.2899 14.8333 15.9602C14.3399 15.6306 13.9554 15.162 13.7284 14.6139C13.5013 14.0657 13.4419 13.4625 13.5576 12.8805C13.6734 12.2986 13.9591 11.7641 14.3787 11.3445C14.7982 10.9249 15.3328 10.6392 15.9147 10.5235C16.4967 10.4077 17.0999 10.4671 17.6481 10.6942C18.1962 10.9212 18.6648 11.3058 18.9944 11.7991C19.3241 12.2925 19.5 12.8725 19.5 13.4658C19.5 14.2615 19.1839 15.0245 18.6213 15.5871C18.0587 16.1498 17.2956 16.4658 16.5 16.4658ZM16.5 2.46582C13.5836 2.46913 10.7877 3.62912 8.72548 5.6913C6.6633 7.75348 5.50331 10.5495 5.5 13.4658C5.5 17.3908 7.31375 21.5508 10.75 25.4971C12.294 27.2803 14.0318 28.886 15.9312 30.2846C16.0994 30.4024 16.2997 30.4655 16.505 30.4655C16.7103 30.4655 16.9106 30.4024 17.0788 30.2846C18.9747 28.8854 20.7091 27.2797 22.25 25.4971C25.6813 21.5508 27.5 17.3908 27.5 13.4658C27.4967 10.5495 26.3367 7.75348 24.2745 5.6913C22.2123 3.62912 19.4164 2.46913 16.5 2.46582ZM16.5 28.2158C14.4337 26.5908 7.5 20.6221 7.5 13.4658C7.5 11.0789 8.44821 8.78969 10.136 7.10186C11.8239 5.41403 14.1131 4.46582 16.5 4.46582C18.8869 4.46582 21.1761 5.41403 22.864 7.10186C24.5518 8.78969 25.5 11.0789 25.5 13.4658C25.5 20.6196 18.5663 26.5908 16.5 28.2158Z"
          fill="black"/>
</svg>
