<svg width="33" height="33" viewBox="0 0 33 33" fill="none" xmlns="http://www.w3.org/2000/svg">
    <path d="M27.344 26.9296L19.519 14.6321L27.2403 6.13832C27.4149 5.94148 27.5049 5.68373 27.4907 5.42097C27.4766 5.15821 27.3595 4.91161 27.1647 4.73464C26.97 4.55767 26.7134 4.46458 26.4504 4.47557C26.1875 4.48655 25.9395 4.60072 25.7603 4.79332L18.4053 12.8833L13.344 4.92957C13.2537 4.78751 13.1291 4.67053 12.9816 4.58947C12.8341 4.5084 12.6686 4.46587 12.5003 4.46582H6.50025C6.32095 4.46573 6.14493 4.51385 5.99061 4.60515C5.83629 4.69644 5.70936 4.82754 5.6231 4.98472C5.53684 5.14191 5.49443 5.31939 5.5003 5.4986C5.50618 5.6778 5.56013 5.85212 5.6565 6.00332L13.4815 18.2996L5.76025 26.7996C5.67008 26.8964 5.60004 27.0102 5.55417 27.1343C5.50831 27.2585 5.48754 27.3905 5.49306 27.5227C5.49858 27.6549 5.53029 27.7847 5.58635 27.9046C5.64241 28.0244 5.72171 28.132 5.81964 28.221C5.91757 28.31 6.03219 28.3787 6.15686 28.423C6.28153 28.4674 6.41377 28.4866 6.54591 28.4795C6.67805 28.4724 6.80746 28.4391 6.92665 28.3816C7.04584 28.3241 7.15243 28.2436 7.24025 28.1446L14.5953 20.0546L19.6565 28.0083C19.7475 28.1492 19.8725 28.265 20.0199 28.3449C20.1673 28.4249 20.3325 28.4664 20.5003 28.4658H26.5003C26.6794 28.4658 26.8552 28.4176 27.0093 28.3264C27.1634 28.2352 27.2902 28.1042 27.3764 27.9472C27.4627 27.7902 27.5051 27.613 27.4994 27.434C27.4937 27.2549 27.44 27.0807 27.344 26.9296ZM21.049 26.4658L8.3215 6.46582H11.9465L24.679 26.4658H21.049Z"
          fill="black"/>
</svg>
