<svg width="62" height="77" viewBox="0 0 62 77" fill="none" xmlns="http://www.w3.org/2000/svg">
    <path d="M57.3159 25.711L57.3155 25.7106L39.769 8.54964L38.9194 7.7187L38.9194 8.9071L38.9194 40.8715C38.9194 50.0951 35.1721 58.9432 28.4982 65.4687C21.8238 71.9946 12.7691 75.6628 3.32542 75.6628C2.81627 75.6628 2.33016 75.4649 1.97349 75.1162C1.6172 74.7678 1.41916 74.2977 1.41916 73.81C1.41916 73.3223 1.6172 72.8523 1.97348 72.5039C2.33016 72.1551 2.81626 71.9573 3.32542 71.9573C11.7508 71.9573 19.8333 68.6849 25.7943 62.8564C31.7557 57.0276 35.1069 49.1197 35.1069 40.8715L35.1069 8.9071L35.1069 7.7187L34.2573 8.54964L16.7108 25.7105C16.7108 25.7106 16.7108 25.7106 16.7108 25.7106C16.3535 26.0599 15.8667 26.258 15.3567 26.258C14.8468 26.258 14.3599 26.0598 14.0027 25.7105C13.6458 25.3616 13.4474 24.8908 13.4474 24.4023C13.4474 23.9138 13.6458 23.443 14.0027 23.0941L35.659 1.91932L35.6595 1.91888C35.8361 1.74579 36.0465 1.60788 36.2789 1.51358C36.5113 1.41928 36.7608 1.3706 37.0131 1.3706C37.2654 1.3706 37.515 1.41928 37.7474 1.51358L37.9354 1.05027L37.7474 1.51359C37.9798 1.60788 38.1902 1.74579 38.3668 1.91888L38.3672 1.91932L60.0236 23.0941L60.024 23.0945C60.2011 23.2671 60.3409 23.4716 60.4361 23.6959C60.5312 23.9202 60.5801 24.1602 60.5801 24.4023C60.5801 24.6444 60.5312 24.8844 60.4361 25.1087C60.3409 25.333 60.2011 25.5375 60.024 25.7101L60.0231 25.711C59.8466 25.8841 59.6362 26.022 59.4038 26.1163C59.1713 26.2106 58.9218 26.2593 58.6695 26.2593C58.4172 26.2593 58.1677 26.2106 57.9352 26.1163C57.7028 26.022 57.4925 25.8841 57.3159 25.711Z"
          fill="white" stroke="white"/>
</svg>
