<svg width="169" height="51" viewBox="0 0 169 51" fill="none" xmlns="http://www.w3.org/2000/svg">
<g clip-path="url(#clip0_1192_1551)">
<path d="M167.881 44.8971C167.881 45.5266 167.757 46.15 167.516 46.7315C167.275 47.3131 166.921 47.8414 166.476 48.2863C166.031 48.7311 165.502 49.0838 164.92 49.3242C164.338 49.5646 163.715 49.6879 163.085 49.6871H6.16504C4.89314 49.6884 3.67278 49.1846 2.77229 48.2863C1.87179 47.3881 1.36489 46.169 1.36304 44.8971V6.70809C1.36436 5.43557 1.87093 4.21565 2.7714 3.3165C3.67186 2.41735 4.89252 1.91256 6.16504 1.91309H163.084C163.714 1.91283 164.338 2.0368 164.919 2.27789C165.501 2.51898 166.03 2.87245 166.475 3.31809C166.921 3.76301 167.274 4.29148 167.515 4.87319C167.756 5.45491 167.879 6.07845 167.879 6.70809L167.881 44.8971Z" fill="white"/>
<path d="M163.085 50.7998H6.165C4.5984 50.7995 3.09587 50.1779 1.98699 49.0713C0.878116 47.9647 0.253442 46.4634 0.25 44.8968V6.7098C0.251854 5.14225 0.875658 3.63949 1.98446 2.53144C3.09326 1.42338 4.59645 0.800598 6.164 0.799805H163.084C164.651 0.802445 166.153 1.42579 167.262 2.53342C168.37 3.64104 168.995 5.14273 168.999 6.7098V44.8968C169.001 48.1528 166.343 50.7998 163.085 50.7998Z" fill="white" fill-opacity="0.5"/>
<path d="M167.881 44.8971C167.881 45.5266 167.757 46.15 167.516 46.7315C167.275 47.3131 166.921 47.8414 166.476 48.2863C166.031 48.7311 165.502 49.0838 164.92 49.3242C164.338 49.5646 163.715 49.6879 163.085 49.6871H6.16504C4.89314 49.6884 3.67278 49.1846 2.77229 48.2863C1.87179 47.3881 1.36489 46.169 1.36304 44.8971V6.70809C1.36436 5.43557 1.87093 4.21565 2.7714 3.3165C3.67186 2.41735 4.89252 1.91256 6.16504 1.91309H163.084C163.714 1.91283 164.338 2.0368 164.919 2.27789C165.501 2.51898 166.03 2.87245 166.475 3.31809C166.921 3.76301 167.274 4.29148 167.515 4.87319C167.756 5.45491 167.879 6.07845 167.879 6.70809L167.881 44.8971Z" fill="black"/>
<path d="M37.93 25.5372C37.894 21.5072 41.23 19.5472 41.383 19.4552C39.493 16.7012 36.565 16.3252 35.535 16.2952C33.075 16.0352 30.689 17.7662 29.435 17.7662C28.158 17.7662 26.228 16.3192 24.148 16.3622C21.471 16.4032 18.968 17.9522 17.594 20.3582C14.76 25.2632 16.874 32.4712 19.589 36.4362C20.947 38.3792 22.535 40.5462 24.612 40.4702C26.644 40.3872 27.403 39.1762 29.856 39.1762C32.286 39.1762 32.999 40.4702 35.118 40.4212C37.298 40.3872 38.672 38.4712 39.983 36.5112C41.553 34.2872 42.183 32.0942 42.208 31.9812C42.158 31.9642 37.973 30.3662 37.93 25.5372ZM33.928 13.6872C35.021 12.3202 35.769 10.4602 35.562 8.57324C33.98 8.64324 32.001 9.66824 30.862 11.0042C29.854 12.1822 28.953 14.1132 29.186 15.9282C30.963 16.0612 32.788 15.0312 33.928 13.6862V13.6872Z" fill="white"/>
<path d="M163.085 0.799805H79.0339L111.955 50.7998H163.085C164.652 50.798 166.154 50.1753 167.263 49.0681C168.371 47.961 168.996 46.4596 169 44.8928V6.7098C168.997 5.14232 168.373 3.63987 167.264 2.53196C166.155 1.42405 164.652 0.801126 163.085 0.799805Z" fill="url(#paint0_linear_1192_1551)"/>
<path d="M67.368 40.1901H64.528L62.971 35.3031H57.564L56.081 40.1911H53.316L58.676 23.5511H61.985L67.368 40.1911V40.1901ZM62.502 33.2531L61.095 28.9081C60.947 28.4641 60.666 27.4181 60.256 25.7731H60.206C60.041 26.4811 59.777 27.5261 59.416 28.9081L58.033 33.2531H62.502ZM81.122 34.0441C81.122 36.0841 80.568 37.6981 79.459 38.8821C78.466 39.9361 77.232 40.4621 75.759 40.4621C74.169 40.4621 73.027 39.8961 72.333 38.7601V45.0561H69.666V32.1361C69.666 30.8541 69.632 29.5401 69.567 28.1921H71.912L72.062 30.0941H72.112C73.001 28.6611 74.35 27.9451 76.161 27.9451C77.577 27.9451 78.759 28.5041 79.704 29.6231C80.648 30.7441 81.122 32.2171 81.122 34.0441ZM78.406 34.1421C78.406 32.9741 78.143 32.0121 77.616 31.2521C77.039 30.4631 76.265 30.0681 75.294 30.0681C74.636 30.0681 74.039 30.2881 73.504 30.7221C72.969 31.1601 72.619 31.7311 72.455 32.4391C72.3819 32.7036 72.3403 32.9759 72.331 33.2501V35.2521C72.331 36.1231 72.599 36.8601 73.134 37.4621C73.67 38.0621 74.365 38.3641 75.221 38.3641C76.225 38.3641 77.006 37.9751 77.565 37.2041C78.125 36.4301 78.406 35.4101 78.406 34.1421ZM94.926 34.0441C94.926 36.0841 94.372 37.6981 93.263 38.8821C92.268 39.9361 91.035 40.4621 89.562 40.4621C87.972 40.4621 86.829 39.8961 86.135 38.7601V45.0561H83.47V32.1361C83.4684 30.8209 83.435 29.5058 83.37 28.1921H85.716L85.865 30.0941H85.915C86.803 28.6611 88.152 27.9451 89.965 27.9451C91.379 27.9451 92.561 28.5041 93.509 29.6231C94.452 30.7441 94.926 32.2171 94.926 34.0441ZM92.208 34.1421C92.208 32.9741 91.945 32.0121 91.417 31.2521C90.84 30.4631 90.068 30.0681 89.098 30.0681C88.44 30.0681 87.842 30.2881 87.306 30.7221C86.771 31.1601 86.421 31.7311 86.258 32.4391C86.176 32.7691 86.133 33.0381 86.133 33.2501V35.2521C86.133 36.1231 86.402 36.8601 86.934 37.4621C87.47 38.0621 88.165 38.3641 89.023 38.3641C90.028 38.3641 90.81 37.9751 91.368 37.2041C91.928 36.4301 92.208 35.4101 92.208 34.1421ZM110.359 35.5231C110.359 36.9401 109.864 38.0921 108.88 38.9801C107.797 39.9501 106.285 40.4371 104.346 40.4371C102.555 40.4371 101.119 40.0921 100.036 39.4011L100.653 37.1791C101.822 37.8711 103.107 38.2171 104.505 38.2171C105.511 38.2171 106.292 37.9891 106.85 37.5371C107.409 37.0851 107.692 36.4801 107.692 35.7251C107.692 35.0481 107.458 34.4821 106.999 34.0201C106.537 33.5601 105.774 33.1311 104.703 32.7371C101.789 31.6511 100.33 30.0621 100.33 27.9711C100.33 26.6061 100.846 25.4881 101.874 24.6141C102.902 23.7411 104.265 23.3041 105.961 23.3041C107.475 23.3041 108.737 23.5691 109.739 24.0951L109.07 26.2681C108.127 25.7581 107.063 25.5031 105.872 25.5031C104.932 25.5031 104.194 25.7341 103.666 26.1951C103.222 26.6051 102.997 27.1071 102.997 27.7021C102.997 28.3591 103.253 28.9041 103.763 29.3321C104.206 29.7251 105.014 30.1541 106.182 30.6141C107.615 31.1921 108.669 31.8641 109.343 32.6381C110.022 33.4101 110.359 34.3741 110.359 35.5231ZM119.198 30.1931H116.259V36.0181C116.259 37.5001 116.777 38.2391 117.815 38.2391C118.291 38.2391 118.686 38.1991 118.999 38.1151L119.073 40.1401C118.548 40.3361 117.856 40.4351 116.999 40.4351C115.946 40.4351 115.123 40.1131 114.529 39.4711C113.938 38.8281 113.64 37.7511 113.64 36.2361V30.1881H111.889V28.1881H113.64V25.9901L116.259 25.2001V28.1861H119.198V30.1921V30.1931ZM132.433 34.0931C132.433 35.9371 131.905 37.4511 130.852 38.6351C129.75 39.8551 128.284 40.4621 126.457 40.4621C124.693 40.4621 123.291 39.8781 122.246 38.7121C121.2 37.5421 120.678 36.0701 120.678 34.2931C120.678 32.4331 121.218 30.9111 122.295 29.7271C123.374 28.5411 124.827 27.9491 126.654 27.9491C128.415 27.9491 129.83 28.5341 130.901 29.7021C131.924 30.8341 132.433 32.2981 132.433 34.0931ZM129.669 34.1541C129.669 33.0551 129.431 32.1121 128.954 31.3241C128.395 30.3711 127.595 29.8941 126.558 29.8941C125.49 29.8941 124.671 30.3711 124.113 31.3241C123.635 32.1121 123.398 33.0711 123.398 34.2041C123.398 35.3041 123.635 36.2501 124.113 37.0361C124.69 37.9891 125.494 38.4661 126.536 38.4661C127.555 38.4661 128.354 37.9791 128.932 37.0131C129.422 36.2051 129.669 35.2561 129.669 34.1541ZM141.104 30.5371C140.827 30.487 140.545 30.4623 140.263 30.4631C139.325 30.4631 138.6 30.8161 138.089 31.5261C137.647 32.1511 137.424 32.9411 137.424 33.8961V40.1911H134.758V31.9711C134.76 30.7117 134.734 29.4524 134.68 28.1941H137.003L137.1 30.4891H137.174C137.457 29.7001 137.899 29.0641 138.507 28.5881C139.063 28.1719 139.739 27.9464 140.434 27.9451C140.681 27.9451 140.903 27.9621 141.101 27.9941L141.104 30.5371ZM153.029 33.6241C153.035 34.0291 153.003 34.4341 152.931 34.8341H144.932C144.962 36.0181 145.35 36.9261 146.092 37.5511C146.767 38.1091 147.638 38.3891 148.709 38.3891C149.893 38.3891 150.974 38.2011 151.946 37.8231L152.363 39.6721C151.228 40.1671 149.887 40.4131 148.34 40.4131C146.479 40.4131 145.018 39.8661 143.955 38.7731C142.895 37.6791 142.363 36.2081 142.363 34.3671C142.363 32.5591 142.857 31.0521 143.846 29.8511C144.882 28.5681 146.281 27.9261 148.042 27.9261C149.772 27.9261 151.081 28.5681 151.971 29.8511C152.675 30.8671 153.029 32.1271 153.029 33.6241ZM150.486 32.9331C150.505 32.1411 150.33 31.4601 149.968 30.8831C149.507 30.1411 148.796 29.7701 147.845 29.7701C146.973 29.7701 146.263 30.1321 145.722 30.8571C145.278 31.4331 145.014 32.1271 144.933 32.9301L150.486 32.9331ZM56.794 17.6691C56.053 17.6691 55.411 17.6321 54.877 17.5711V9.52614C55.6238 9.41083 56.3784 9.35399 57.134 9.35614C60.192 9.35614 61.601 10.8601 61.601 13.3121C61.601 16.1411 59.937 17.6691 56.794 17.6691ZM57.242 10.3881C56.829 10.3881 56.478 10.4131 56.186 10.4731V16.5881C56.344 16.6131 56.646 16.6251 57.072 16.6251C59.075 16.6251 60.216 15.4851 60.216 13.3491C60.216 11.4441 59.184 10.3881 57.242 10.3881ZM65.989 17.7301C64.266 17.7301 63.149 16.4431 63.149 14.6961C63.149 12.8761 64.289 11.5781 66.087 11.5781C67.785 11.5781 68.927 12.8031 68.927 14.6001C68.927 16.4431 67.75 17.7301 65.989 17.7301ZM66.039 12.5361C65.092 12.5361 64.486 13.4211 64.486 14.6591C64.486 15.8731 65.105 16.7591 66.026 16.7591C66.948 16.7591 67.568 15.8121 67.568 14.6341C67.568 13.4341 66.961 12.5361 66.039 12.5361ZM78.755 11.6991L76.91 17.5961H75.708L74.944 15.0361C74.754 14.4095 74.5958 13.7737 74.47 13.1311H74.445C74.349 13.7741 74.166 14.4181 73.972 15.0351L73.159 17.5961H71.945L70.209 11.6991H71.556L72.224 14.5031C72.381 15.1701 72.514 15.8001 72.624 16.3961H72.649C72.745 15.8991 72.903 15.2791 73.134 14.5161L73.972 11.7011H75.04L75.842 14.4551C76.036 15.1231 76.194 15.7781 76.316 16.3971H76.351C76.436 15.7911 76.57 15.1471 76.751 14.4551L77.468 11.7011L78.755 11.6991ZM85.546 17.5961H84.236V14.2101C84.236 13.1671 83.836 12.6451 83.046 12.6451C82.269 12.6451 81.736 13.3121 81.736 14.0891V17.5961H80.424V13.3851C80.424 12.8641 80.412 12.3051 80.376 11.6981H81.529L81.59 12.6081H81.626C81.979 11.9781 82.695 11.5781 83.496 11.5781C84.734 11.5781 85.547 12.5251 85.547 14.0651L85.546 17.5961ZM89.16 17.5961H87.85V8.99414H89.161L89.16 17.5961ZM93.94 17.7301C92.217 17.7301 91.099 16.4431 91.099 14.6961C91.099 12.8761 92.239 11.5781 94.036 11.5781C95.736 11.5781 96.876 12.8031 96.876 14.6001C96.877 16.4431 95.7 17.7301 93.94 17.7301ZM93.988 12.5361C93.041 12.5361 92.435 13.4211 92.435 14.6591C92.435 15.8731 93.055 16.7591 93.975 16.7591C94.897 16.7591 95.515 15.8121 95.515 14.6341C95.516 13.4341 94.911 12.5361 93.988 12.5361ZM102.044 17.5961L101.949 16.9171H101.914C101.513 17.4631 100.929 17.7301 100.189 17.7301C99.132 17.7301 98.382 16.9901 98.382 15.9941C98.382 14.5391 99.644 13.7861 101.829 13.7861V13.6771C101.829 12.9011 101.417 12.5121 100.604 12.5121C100.023 12.5121 99.512 12.6581 99.064 12.9501L98.797 12.0881C99.342 11.7481 100.023 11.5781 100.822 11.5781C102.363 11.5781 103.14 12.3911 103.14 14.0181V16.1891C103.14 16.7851 103.167 17.2461 103.226 17.5971L102.044 17.5961ZM101.864 14.6591C100.408 14.6591 99.677 15.0121 99.677 15.8481C99.677 16.4671 100.054 16.7691 100.577 16.7691C101.243 16.7691 101.864 16.2611 101.864 15.5691V14.6591ZM109.505 17.5961L109.444 16.6491H109.408C109.031 17.3651 108.398 17.7291 107.514 17.7291C106.092 17.7291 105.039 16.4791 105.039 14.7201C105.039 12.8761 106.131 11.5771 107.622 11.5771C108.411 11.5771 108.97 11.8431 109.285 12.3781H109.311V8.99414H110.623V16.0071C110.623 16.5771 110.637 17.1111 110.672 17.5961H109.505ZM109.311 14.1261C109.311 13.3011 108.765 12.5971 107.931 12.5971C106.959 12.5971 106.365 13.4591 106.365 14.6721C106.365 15.8601 106.981 16.6741 107.904 16.6741C108.729 16.6741 109.311 15.9581 109.311 15.1091V14.1261ZM118.942 17.7301C117.219 17.7301 116.102 16.4431 116.102 14.6961C116.102 12.8761 117.243 11.5781 119.039 11.5781C120.739 11.5781 121.879 12.8031 121.879 14.6001C121.881 16.4431 120.704 17.7301 118.942 17.7301ZM118.99 12.5361C118.045 12.5361 117.438 13.4211 117.438 14.6591C117.438 15.8731 118.057 16.7591 118.978 16.7591C119.901 16.7591 120.519 15.8121 120.519 14.6341C120.521 13.4341 119.915 12.5361 118.99 12.5361ZM128.928 17.5961H127.616V14.2101C127.616 13.1671 127.216 12.6451 126.427 12.6451C125.65 12.6451 125.117 13.3121 125.117 14.0891V17.5961H123.805V13.3851C123.805 12.8641 123.793 12.3051 123.757 11.6981H124.91L124.971 12.6081H125.007C125.359 11.9781 126.075 11.5771 126.876 11.5771C128.114 11.5771 128.928 12.5231 128.928 14.0641V17.5961ZM137.747 12.6821H136.305V15.5461C136.305 16.2741 136.557 16.6381 137.068 16.6381C137.299 16.6381 137.493 16.6131 137.649 16.5771L137.685 17.5721C137.432 17.6701 137.091 17.7191 136.669 17.7191C135.636 17.7191 135.018 17.1491 135.018 15.6551V12.6821H134.157V11.7001H135.018V10.6201L136.305 10.2311V11.6991H137.747V12.6821ZM144.685 17.5961H143.376V14.2361C143.376 13.1801 142.977 12.6461 142.187 12.6461C141.507 12.6461 140.875 13.1071 140.875 14.0411V17.5961H139.565V8.99414H140.875V12.5361H140.901C141.314 11.8931 141.911 11.5761 142.674 11.5761C143.923 11.5761 144.685 12.5471 144.685 14.0891V17.5961ZM151.794 14.9631H147.861C147.886 16.0791 148.625 16.7091 149.719 16.7091C150.301 16.7091 150.836 16.6121 151.309 16.4311L151.513 17.3411C150.955 17.5831 150.298 17.7051 149.534 17.7051C147.69 17.7051 146.598 16.5401 146.598 14.7331C146.598 12.9251 147.716 11.5661 149.387 11.5661C150.894 11.5661 151.839 12.6821 151.839 14.3691C151.848 14.5681 151.833 14.7671 151.794 14.9631ZM150.592 14.0291C150.592 13.1191 150.133 12.4761 149.295 12.4761C148.542 12.4761 147.947 13.1311 147.862 14.0291H150.592Z" fill="white"/>
<rect x="115.5" y="66.7969" width="20.5065" height="86.6866" transform="rotate(-135 115.5 66.7969)" fill="#F36C6C"/>
<path d="M122.856 45.7962L123.527 45.3957C123.855 45.9481 123.988 46.4867 123.927 47.0115C123.867 47.5327 123.625 48.0041 123.204 48.4257C122.767 48.8622 122.323 49.1292 121.872 49.2268C121.421 49.3207 120.955 49.271 120.475 49.0776C119.996 48.8824 119.563 48.5915 119.176 48.2048C118.755 47.7831 118.468 47.3356 118.315 46.8624C118.162 46.3855 118.153 45.9177 118.287 45.4592C118.421 44.997 118.667 44.5873 119.025 44.2301C119.43 43.825 119.873 43.5874 120.356 43.5174C120.838 43.4475 121.321 43.5451 121.803 43.8102L121.4 44.4621C121.011 44.2614 120.661 44.1831 120.348 44.2273C120.035 44.2715 119.743 44.4289 119.472 44.6996C119.161 45.0108 118.975 45.346 118.914 45.705C118.855 46.0623 118.909 46.4094 119.077 46.7464C119.243 47.0815 119.459 47.3826 119.726 47.6496C120.07 47.9939 120.421 48.2453 120.778 48.4037C121.136 48.5583 121.484 48.5933 121.823 48.5086C122.161 48.4239 122.454 48.2582 122.701 48.0114C123.001 47.7113 123.169 47.3706 123.204 46.9894C123.239 46.6083 123.123 46.2105 122.856 45.7962ZM123.339 44.208C122.667 43.5358 122.322 42.8297 122.303 42.0894C122.283 41.3473 122.558 40.6908 123.129 40.12C123.503 39.7462 123.929 39.4985 124.408 39.377C124.887 39.2555 125.365 39.2766 125.841 39.4405C126.318 39.6007 126.759 39.8834 127.165 40.2885C127.575 40.6991 127.86 41.1494 128.018 41.6392C128.176 42.129 128.187 42.6096 128.051 43.081C127.913 43.5506 127.668 43.9612 127.316 44.3129C126.935 44.6941 126.503 44.9427 126.018 45.0587C125.534 45.1747 125.055 45.1508 124.582 44.9869C124.109 44.823 123.694 44.5634 123.339 44.208ZM123.9 43.6638C124.388 44.1518 124.903 44.4059 125.447 44.4262C125.99 44.4427 126.459 44.2531 126.855 43.8572C127.258 43.4539 127.448 42.9807 127.424 42.4374C127.402 41.8924 127.13 41.3593 126.609 40.8382C126.28 40.5085 125.936 40.2774 125.579 40.1449C125.222 40.0086 124.868 39.981 124.518 40.062C124.169 40.1393 123.86 40.3115 123.593 40.5785C123.214 40.9579 123.018 41.4154 123.005 41.9513C122.992 42.4835 123.29 43.0543 123.9 43.6638ZM129.86 41.6309L125.811 37.5816L126.618 36.7751L130.443 38.6837C130.799 38.8623 131.063 38.9977 131.236 39.0897C131.135 38.8964 130.99 38.6082 130.802 38.2252L128.954 34.4383L129.675 33.7174L133.725 37.7667L133.208 38.2832L129.819 34.894L132.031 39.4599L131.548 39.9432L126.93 37.6672L130.377 41.1144L129.86 41.6309ZM134.68 36.811L130.631 32.7617L131.167 32.2258L135.216 36.2751L134.68 36.811ZM136.158 35.3332L132.109 31.2839L132.658 30.7343L137.965 31.7866L134.785 28.6074L135.299 28.0937L139.348 32.143L138.799 32.6926L133.49 31.6375L136.672 34.8195L136.158 35.3332ZM140.558 27.7567L140.083 27.2816L141.796 25.5636L143.298 27.0662C143.245 27.5394 143.132 27.9694 142.958 28.3561C142.784 28.7409 142.549 29.0807 142.254 29.3753C141.856 29.773 141.41 30.0502 140.914 30.2067C140.419 30.3595 139.927 30.3577 139.439 30.2012C138.952 30.0447 138.509 29.7675 138.111 29.3698C137.717 28.9757 137.431 28.5264 137.255 28.0219C137.078 27.5136 137.061 27.022 137.205 26.5469C137.349 26.0718 137.622 25.6326 138.025 25.2293C138.318 24.9365 138.63 24.7202 138.962 24.5802C139.293 24.4366 139.611 24.3823 139.915 24.4173C140.218 24.4523 140.542 24.571 140.884 24.7736L140.533 25.3895C140.266 25.2441 140.029 25.1575 139.821 25.1299C139.613 25.1023 139.39 25.1373 139.152 25.2349C138.913 25.3306 138.691 25.4807 138.487 25.6851C138.242 25.93 138.068 26.1795 137.965 26.4336C137.86 26.6859 137.813 26.928 137.824 27.1601C137.837 27.3902 137.885 27.6085 137.97 27.8147C138.117 28.1682 138.337 28.4914 138.63 28.7842C138.991 29.1451 139.355 29.3854 139.721 29.5051C140.09 29.623 140.451 29.622 140.807 29.5024C141.162 29.3827 141.473 29.1893 141.74 28.9223C141.972 28.6903 142.155 28.4196 142.287 28.1102C142.418 27.799 142.49 27.5357 142.503 27.3203L141.749 26.5662L140.558 27.7567ZM144.746 24.1438L145.207 23.5941C145.433 23.7728 145.655 23.8842 145.872 23.9284C146.09 23.9689 146.331 23.9376 146.596 23.8345C146.86 23.7295 147.106 23.5619 147.336 23.3317C147.541 23.1273 147.691 22.9165 147.787 22.6992C147.882 22.4819 147.916 22.2831 147.886 22.1026C147.857 21.9185 147.779 21.7638 147.654 21.6386C147.527 21.5115 147.38 21.4378 147.212 21.4176C147.043 21.3955 146.841 21.4369 146.607 21.5419C146.456 21.6082 146.151 21.7831 145.69 22.0667C145.228 22.3484 144.883 22.5243 144.654 22.5943C144.36 22.6863 144.09 22.7057 143.845 22.6523C143.6 22.5952 143.385 22.4736 143.199 22.2877C142.994 22.0833 142.862 21.8347 142.801 21.5419C142.738 21.2473 142.772 20.9425 142.903 20.6276C143.034 20.3127 143.236 20.019 143.508 19.7465C143.808 19.4463 144.121 19.2309 144.447 19.1002C144.773 18.9657 145.092 18.9307 145.403 18.9952C145.714 19.0596 145.993 19.206 146.24 19.4344L145.765 19.9868C145.481 19.7585 145.194 19.659 144.903 19.6885C144.614 19.7161 144.314 19.8855 144.003 20.1967C143.678 20.5208 143.502 20.8173 143.472 21.0861C143.443 21.3513 143.512 21.5677 143.679 21.7352C143.825 21.8807 143.997 21.9479 144.196 21.9369C144.393 21.9277 144.758 21.7555 145.292 21.4203C145.826 21.0815 146.211 20.8679 146.447 20.7795C146.791 20.6525 147.103 20.6166 147.383 20.6718C147.661 20.7252 147.909 20.8606 148.126 21.0778C148.342 21.2933 148.484 21.5585 148.552 21.8733C148.618 22.1864 148.589 22.5123 148.463 22.8511C148.338 23.1863 148.131 23.4984 147.842 23.7875C147.475 24.1539 147.115 24.4081 146.759 24.5498C146.406 24.6898 146.051 24.7239 145.696 24.652C145.34 24.5765 145.024 24.4071 144.746 24.1438ZM147.867 19.6802C147.195 19.0081 146.849 18.3019 146.831 17.5616C146.811 16.8195 147.086 16.1631 147.657 15.5922C148.031 15.2184 148.457 14.9708 148.936 14.8492C149.414 14.7277 149.892 14.7489 150.369 14.9128C150.846 15.073 151.287 15.3556 151.692 15.7607C152.103 16.1714 152.387 16.6216 152.546 17.1114C152.704 17.6012 152.715 18.0818 152.579 18.5532C152.441 19.0228 152.196 19.4334 151.844 19.7852C151.463 20.1663 151.03 20.4149 150.546 20.5309C150.062 20.6469 149.583 20.623 149.11 20.4591C148.636 20.2952 148.222 20.0356 147.867 19.6802ZM148.427 19.1361C148.915 19.624 149.431 19.8782 149.974 19.8984C150.517 19.915 150.987 19.7253 151.383 19.3294C151.786 18.9261 151.976 18.4529 151.952 17.9097C151.93 17.3646 151.658 16.8315 151.137 16.3104C150.808 15.9808 150.464 15.7497 150.107 15.6171C149.75 15.4808 149.396 15.4532 149.046 15.5342C148.696 15.6116 148.388 15.7837 148.121 16.0508C147.742 16.4301 147.545 16.8877 147.533 17.4235C147.52 17.9557 147.818 18.5265 148.427 19.1361ZM152.27 15.2774C151.597 14.6052 151.252 13.8991 151.234 13.1588C151.214 12.4167 151.489 11.7602 152.06 11.1894C152.433 10.8156 152.86 10.5679 153.339 10.4464C153.817 10.3248 154.295 10.346 154.772 10.5099C155.249 10.6701 155.69 10.9528 156.095 11.3579C156.506 11.7685 156.79 12.2188 156.949 12.7086C157.107 13.1984 157.118 13.679 156.982 14.1504C156.844 14.62 156.599 15.0306 156.247 15.3823C155.866 15.7635 155.433 16.0121 154.949 16.1281C154.465 16.2441 153.986 16.2202 153.513 16.0563C153.039 15.8924 152.625 15.6328 152.27 15.2774ZM152.83 14.7332C153.318 15.2212 153.834 15.4753 154.377 15.4956C154.92 15.5121 155.39 15.3225 155.786 14.9266C156.189 14.5233 156.379 14.05 156.355 13.5068C156.333 12.9618 156.061 12.4287 155.54 11.9076C155.21 11.5779 154.867 11.3468 154.51 11.2143C154.152 11.078 153.799 11.0504 153.449 11.1314C153.099 11.2087 152.791 11.3809 152.524 11.6479C152.144 12.0272 151.948 12.4848 151.935 13.0207C151.922 13.5529 152.221 14.1237 152.83 14.7332ZM158.802 12.6892L154.753 8.63994L155.302 8.09028L160.608 9.14265L157.429 5.96343L157.943 5.44968L161.992 9.49897L161.443 10.0486L156.134 8.9935L159.316 12.1755L158.802 12.6892Z" fill="white"/>
</g>
<defs>
<linearGradient id="paint0_linear_1192_1551" x1="124.015" y1="50.9328" x2="124.015" y2="-129.391" gradientUnits="userSpaceOnUse">
<stop stop-color="#1A1A1A" stop-opacity="0.1"/>
<stop offset="0.123" stop-color="#212121" stop-opacity="0.151"/>
<stop offset="0.308" stop-color="#353535" stop-opacity="0.227"/>
<stop offset="0.532" stop-color="#575757" stop-opacity="0.318"/>
<stop offset="0.783" stop-color="#858585" stop-opacity="0.421"/>
<stop offset="1" stop-color="#B3B3B3" stop-opacity="0.51"/>
</linearGradient>
<clipPath id="clip0_1192_1551">
<rect width="169" height="51" fill="white"/>
</clipPath>
</defs>
</svg>
