<svg width="146" height="163" viewBox="0 0 146 163" fill="none" xmlns="http://www.w3.org/2000/svg">
<path d="M100.581 93.6703C140.222 88.914 155.31 6.21362 138.978 0.853118C122.645 -4.50738 103.274 21.7684 97.5094 48.1061C94.4331 61.7459 94.5409 75.8943 97.8244 89.4872C95.0814 98.0634 92.9759 106.824 91.5246 115.701C89.2095 110.433 86.595 105.259 83.7287 100.208C88.0912 94.9252 82.9254 83.3211 73.9325 64.1411C64.2309 43.4737 36.3702 -0.680676 20.1011 8.87836C3.83195 18.4374 21.4083 57.944 42.9377 75.7607C53.9576 85.0013 65.9911 93.0037 78.8148 99.6195C84.9917 109.945 89.9281 120.941 93.5248 132.387C86.9659 125.921 79.7518 120.133 71.9953 115.112C59.1281 94.0886 15.4708 69.4086 3.80045 80.8887C-8.54708 93.0196 20.5893 115.484 38.9688 118.645C49.5453 120.342 60.3187 120.494 70.9401 119.094C80.0288 125.07 88.3154 132.149 95.6037 140.164C97.1685 146.897 98.0235 153.771 98.1551 160.676C98.1551 161.19 98.3625 161.683 98.7317 162.046C99.1009 162.409 99.6017 162.613 100.124 162.613C100.646 162.613 101.147 162.409 101.516 162.046C101.885 161.683 102.092 161.19 102.092 160.676C101.748 147.681 99.132 134.841 94.3595 122.719C95.6354 112.887 97.7158 103.173 100.581 93.6703Z" fill="#ECC889"/>
</svg>
