<svg width="90" height="128" viewBox="0 0 90 128" fill="none" xmlns="http://www.w3.org/2000/svg">
    <path d="M50.5139 76.1201H50.5936C77.8836 69.8622 79.0555 56.1644 79.0555 56.1644C82.691 40.046 78.6171 4.7896 67.5432 3.54288C56.4693 2.29615 56.9238 21.4504 56.9238 21.4504C56.9238 21.4504 46.687 -1.0959 38.0767 0.644658C29.4663 2.38522 24.5234 12.5614 25.1931 24.9315C25.1931 24.9315 19.8594 5.50202 7.94048 9.37172C-3.97847 13.2414 -1.03659 51.7037 14.0315 66.1625C14.0315 66.1625 22.4186 80.7346 46.6471 76.8325C50.0508 87.812 49.0569 99.7112 43.8807 109.952C42.2862 90.1012 22.873 76.4439 14.5736 88.6035C5.25374 102.253 33.1576 111.668 41.5766 114.153C39.298 117.824 36.5412 121.166 33.3809 124.087C31.4914 125.827 33.9788 128.993 35.8842 127.228C46.703 117.254 52.8976 104.277 52.5548 89.3564C52.4482 84.8726 51.762 80.4224 50.5139 76.1201Z"
          fill="#ECC889"/>
    <path d="M85.8237 70.825C71.8399 60.0497 49.9473 106.17 49.9473 106.17C76.3443 109.142 99.8075 81.6084 85.8237 70.825Z"
          fill="#ECC889"/>
</svg>
