<svg width="132" height="148" viewBox="0 0 132 148" fill="none" xmlns="http://www.w3.org/2000/svg">
<path d="M85.3808 121.231C83.789 114.276 82.1747 106.957 80.4035 99.6847C79.7696 96.975 78.8992 94.332 77.8029 91.7896C75.2245 86.0094 77.0292 81.0632 79.8766 76.0819C81.7804 72.8993 84.0384 69.9652 86.6029 67.341C89.8651 63.8165 93.2282 60.3859 95.2348 55.8745C96.6355 52.7915 97.4901 49.4676 97.7572 46.0645C98.2504 39.92 96.9838 34.034 95.6498 28.1833C94.3157 22.3325 92.7015 16.564 90.9639 10.8424C90.0361 8.00593 88.8848 5.25514 87.5222 2.61848C87.0216 1.70293 86.227 1.00338 85.2801 0.644668C83.3856 0.0102476 81.5359 2.2425 81.917 4.49822C82.4672 7.51441 82.8415 10.5629 83.038 13.6268C83.073 16.7777 82.8216 19.9248 82.287 23.0257C81.5023 27.96 79.1815 32.166 76.435 36.2545C73.7065 40.4587 71.6329 45.0904 70.2917 49.9767C68.607 55.3811 67.8813 61.0633 68.1506 66.7418C68.33 69.6672 68.8904 72.6161 68.9465 75.7295C67.6797 73.3093 66.3122 70.9243 65.1463 68.4453C62.5567 62.8883 62.4557 56.6968 60.875 50.8225C59.1599 44.4548 57.7025 37.9697 55.5725 31.7547C53.2983 25.0271 49.6393 18.9063 44.8553 13.8265C40.6891 9.53535 36.156 5.65383 31.3131 2.23069C30.5546 1.61536 29.6601 1.21119 28.7124 1.05584C28.2905 1.04667 27.8717 1.13325 27.4847 1.30968C27.0977 1.48611 26.7516 1.7482 26.4704 2.07795C26.2516 2.41894 26.1053 2.80523 26.0415 3.21064C25.9777 3.61605 25.9977 4.03109 26.1003 4.42766C26.9301 6.43653 27.8619 8.39742 28.8917 10.3019C30.8087 14.0849 31.414 18.2087 31.8736 22.3794C32.3668 26.836 32.9014 31.2809 33.4769 35.714C33.7232 38.6107 34.188 41.4824 34.867 44.3022C36.3565 49.7429 38.8765 54.8133 42.2769 59.211C46.279 64.2511 51.5256 67.5172 56.6824 70.8421C61.6374 74.0259 64.8997 78.737 68.5431 83.2602C68.1517 83.1658 67.7745 83.0157 67.422 82.8139C61.0187 78.2268 53.6472 75.3399 45.9427 74.4019C41.7052 73.7675 37.479 73.0155 33.2191 72.7453C27.5466 72.3929 21.8515 72.2518 16.1678 72.4163C11.6276 72.5456 7.0987 73.2387 2.5697 73.7557C1.3814 73.8967 0.18187 74.4607 0.0361352 75.8705C0.133869 76.7072 0.409677 77.5102 0.843252 78.2202C0.913386 78.3426 1.0059 78.4491 1.11557 78.5338C1.22525 78.6185 1.34999 78.6796 1.48232 78.7135C7.22205 80.3113 11.5716 84.4116 16.2688 87.8304C18.912 89.6986 21.7335 91.2736 24.6878 92.5298C28.1296 94.0161 31.6702 95.2372 35.2816 96.1836C38.214 96.7891 41.1737 97.24 44.1492 97.5347C49.6311 98.3688 54.6308 96.4538 59.7203 94.7503C63.005 93.6459 66.4466 92.894 69.8097 92.0951C70.6963 91.8948 71.622 92.0364 72.4169 92.4939C73.2118 92.9515 73.8227 93.6942 74.137 94.5858C75.7738 100.284 77.5001 105.982 78.7893 111.762C80.7062 120.174 82.242 128.68 86.2777 136.434C87.9927 139.639 90.3209 142.439 93.1162 144.658C94.0803 145.445 95.1115 146.138 96.0868 146.914C96.524 147.358 97.1091 147.606 97.718 147.606C98.327 147.606 98.9121 147.358 99.3492 146.914C99.5451 146.649 99.6868 146.346 99.7661 146.022C99.8453 145.697 99.8603 145.36 99.8099 145.029C99.7594 144.699 99.6447 144.383 99.473 144.101C99.3012 143.818 99.0759 143.576 98.8112 143.389C97.3762 142.214 95.9075 141.039 94.4389 139.994C92.4995 138.549 92.197 136.975 93.7216 135.071C96.3112 131.817 99.2483 128.809 101.569 125.343C104.474 121.207 106.961 116.766 108.99 112.091C111.557 105.7 113.082 98.8622 115.436 92.3653C117.004 88.1599 118.878 84.0868 121.041 80.1821C123.048 76.4461 125.458 72.9568 127.767 69.3853C128.687 67.9519 129.752 66.6125 130.716 65.2027C131.045 64.7939 131.211 64.268 131.18 63.7342C131.149 63.2003 130.922 62.6996 130.548 62.3362C130.177 61.9476 129.696 61.6945 129.178 61.6141C128.659 61.5337 128.129 61.6303 127.667 61.8897C124.569 63.3953 121.701 65.375 119.158 67.764C116.277 70.3486 113.272 72.7924 110.324 75.3066C105.314 79.3383 100.865 84.0836 97.1072 89.4048C93.6947 94.2108 91.0448 99.5625 89.2599 105.254C87.7689 110.646 86.6252 116.097 85.3808 121.231Z" fill="#ECC889"/>
</svg>
