<svg id="Layer_1" data-name="Layer 1" xmlns="http://www.w3.org/2000/svg" xmlns:xlink="http://www.w3.org/1999/xlink"
    viewBox="0 0 512 512">
    <defs>
        <style>
            .cls-1 {
                fill: url(#linear-gradient);
            }

            .cls-2 {
                fill: none;
                stroke: #fff;
                stroke-linejoin: round;
                stroke-width: 25px;
            }
        </style>
        <linearGradient id="linear-gradient" x1="74.98" y1="437.02" x2="437.02" y2="74.98"
            gradientUnits="userSpaceOnUse">
            <stop offset="0.05" stop-color="#0067a9" />
            <stop offset="0.26" stop-color="#0a5189" />
            <stop offset="0.49" stop-color="#133d6e" />
            <stop offset="0.69" stop-color="#18315d" />
            <stop offset="0.84" stop-color="#1a2d57" />
        </linearGradient>
    </defs>
    <circle class="cls-1" cx="256" cy="256" r="256" />
    <path class="cls-2" d="M376.83,379.58l-.33,0A172.29,172.29,0,0,1,287,426,172.32,172.32,0,0,0,376.83,379.58Z" />
    <path class="cls-2"
        d="M428.55,256a172.06,172.06,0,0,0-42-112.94q-1.61-1.86-3.26-3.66a108,108,0,1,1-190.5,85A172.62,172.62,0,0,0,364.64,380q6,0,11.86-.41A172.22,172.22,0,0,0,428.55,256Z" />
    <path class="cls-2"
        d="M288.59,362.41a172.87,172.87,0,0,1-95.84-138,107.68,107.68,0,0,1-1.34-17.05A108,108,0,0,0,86.65,289.2,172.51,172.51,0,0,0,256.18,428.7a174,174,0,0,0,29.88-2.58l.25,0L287,426a172.29,172.29,0,0,0,89.5-46.35q-5.88.4-11.86.41A172,172,0,0,1,288.59,362.41Z" />
    <path class="cls-2"
        d="M83.45,256a173.27,173.27,0,0,0,3.2,33.23,108,108,0,0,1,104.76-81.81l.5-.11v.12c0,5.75.29,11.43.84,17a108,108,0,1,0,190.5-85A172.26,172.26,0,0,0,255.82,83.3,174.67,174.67,0,0,0,234,84.67l-.48.06c-1.07.14-2.14.29-3.2.45l-2,.31-1.59.26q-1.68.28-3.36.6l-.08,0A172.77,172.77,0,0,0,83.45,256Z" />
</svg>