<svg width="361" height="69" viewBox="0 0 361 69" fill="none" xmlns="http://www.w3.org/2000/svg">
    <path d="M231.542 8.75533C231.751 8.93641 231.945 9.23334 232.181 9.28027C233.316 9.51189 234.464 9.67852 235.805 9.89734C236.417 9.62779 237.19 9.28332 238.06 8.90172C238.949 8.7879 239.91 9.3238 240.966 9.008C241.886 8.72989 242.958 8.75395 243.948 8.87253C244.997 8.9965 245.937 8.69063 246.924 8.61119C250.216 8.34897 253.42 7.33774 256.812 7.86945C257.633 7.99615 258.504 7.68196 259.351 7.57756C266.221 6.75607 273.172 6.51983 279.976 5.23367C281.643 4.91846 283.438 5.17851 285.169 5.14236C285.92 5.13008 286.568 4.87711 287.049 4.04944C286.751 3.82868 286.428 3.39567 286.144 3.40958C285.287 3.4519 284.448 3.66506 283.603 3.81557C281.051 4.26529 278.484 4.62812 275.856 4.46658C275.66 4.45279 275.469 4.11746 275.257 3.91569C275.441 3.76633 275.609 3.51765 275.814 3.49243C279.386 3.01414 282.966 2.56008 286.543 2.11075C287.114 2.04037 287.695 1.94339 288.27 1.98651C291.483 2.21955 294.636 1.82244 297.77 1.36855C301.792 0.78843 305.863 1.02108 309.909 0.889629C310.614 0.866075 311.334 1.11506 312.044 1.23869C312.666 1.89659 313.251 2.50832 313.855 3.14729C314.521 2.70639 315.09 2.32804 315.804 1.85171C318.053 1.4478 320.215 2.50265 322.378 3.11416C324.108 5.56474 325.781 7.93369 327.655 10.5818C329.06 10.7759 330.779 11.0158 332.725 11.2825C333.837 11.8208 335.135 12.5137 336.66 12.4312C338.533 12.3355 340.022 13.2537 341.553 14.6313C342.05 16.6976 342.957 18.8318 343.488 21.1051C343.974 23.1856 343.865 25.4618 345.229 27.2483C346.502 28.2945 347.864 27.3034 349.38 27.906C351.246 30.4749 352.068 33.696 353.015 36.7919C354.074 37.7801 355.331 36.9159 356.722 37.5846C357.741 38.5355 358.184 40.1189 358.412 41.6613C358.906 44.9565 359.9 48.1902 359.976 51.5412C360.006 52.8251 360.382 54.1129 360.582 55.401C360.743 56.4155 360.815 57.4199 359.985 58.4635C359.477 58.56 358.792 58.7922 358.089 58.7986C350.683 58.8926 343.37 59.7686 336.012 60.3041C328.36 60.8589 320.744 61.5951 313.127 62.3609C310.83 62.5933 308.505 62.6224 306.198 62.7928C302.304 63.0828 298.417 63.4479 294.525 63.7166C284.425 64.4044 274.327 65.1087 264.221 65.7001C259.172 65.9931 254.104 66.0479 249.045 66.2198C247.742 66.2664 246.444 66.342 245.146 66.4176C244.281 66.4693 243.415 66.6098 242.549 66.5983C236.745 66.5117 230.963 66.7432 225.174 66.9332C218.521 67.1496 211.845 67.0776 205.181 67.1728C196.925 67.2913 188.668 67.4353 180.41 67.6087C178.959 67.6399 177.533 67.5244 176.081 67.3994C173.344 67.1669 170.588 67.2322 167.84 67.2289C164.077 67.2241 160.313 67.266 156.547 67.3038C155.244 67.3167 153.944 67.4094 152.641 67.4265C150.616 67.4523 148.59 67.4403 146.561 67.4413C146.124 67.4403 145.691 67.4008 145.258 67.4246C139.493 67.7341 133.7 67.5069 127.933 67.7407C125.623 67.8354 123.292 67.709 120.979 67.7535C114.471 67.8802 107.971 68.082 101.464 68.1833C97.8476 68.2407 94.2251 68.1131 90.6107 68.1533C86.7054 68.1956 82.8034 68.3473 78.8961 68.4364C75.7241 68.5107 72.5487 68.5644 69.3733 68.6181C67.0741 68.6567 64.7681 68.6243 62.4728 68.7172C56.6942 68.9398 50.8829 68.5458 45.1143 68.9487C43.3913 69.0682 41.636 68.9005 39.8974 68.8657C35.8407 68.7831 31.7792 68.7307 27.7198 68.6021C27.0272 68.5819 26.3323 68.2496 25.8295 68.1132C24.9651 67.2783 24.7368 66.4453 24.9178 65.5617C25.2912 63.7468 25.7258 61.9497 26.1414 60.1254C26.6496 59.6406 27.1537 59.1606 27.7333 58.6078C27.6942 58.2792 27.6504 57.892 27.6073 57.4793C26.2159 56.9543 24.9641 57.5518 23.6829 57.5536C22.5377 57.5554 21.4079 57.8593 20.2632 57.9835C19.0132 58.1165 17.7214 58.6768 16.4488 57.5123C16.3485 57.1954 16.0703 56.7695 16.1094 56.3847C16.4913 52.8379 17.0031 49.3131 17.8112 45.7011C19.0709 45.3601 20.2843 45.0332 21.4699 44.714C21.5125 44.2613 21.5469 43.8771 21.5847 43.484C23.5085 43.0189 25.5537 42.8808 27.4339 41.7625C27.6523 37.9572 28.5483 34.1993 27.8912 30.4724C27.1926 29.7016 26.4648 29.6139 25.7383 29.5937C21.2384 29.4729 16.7419 29.4024 12.2462 29.2473C9.34687 29.1487 6.44155 28.9538 3.54032 28.7542C2.84305 28.7051 2.1515 28.4526 1.64255 28.338C0.78249 27.2324 0.907826 26.2164 0.986937 25.2146C1.28975 21.2427 0.898735 17.1537 2.41731 13.3148C3.01219 13.1233 3.54254 12.8047 4.08558 12.801C6.67573 12.7899 9.23464 12.0524 11.8561 12.7382C15.1642 12.4275 18.5372 13.3162 21.8185 12.574C24.4097 12.8963 27.0185 12.4945 29.6075 13.0409C30.3359 13.1917 31.0448 13.1929 31.6699 12.7106C31.7312 11.8967 30.8468 12.1282 30.7111 11.803C27.6603 11.6978 24.7718 11.6358 21.8828 11.4811C18.5533 11.3047 15.2311 11.4103 11.9103 11.465C10.7631 11.484 9.60751 11.6307 8.31879 11.0212C8.76755 10.8266 9.06823 10.6164 9.40811 10.5576C10.6827 10.3372 11.9634 10.0063 13.2486 9.99983C16.5809 9.9859 19.9226 10.1777 23.2535 10.185C26.7204 10.1925 30.2064 10.7338 33.6615 10.253C34.0884 10.1919 34.5323 10.1457 34.9591 10.2028C42.3419 11.1545 49.7456 10.8076 57.1362 11.3911C59.7322 11.5946 62.3647 11.4558 64.9536 11.2591C68.8612 10.9632 72.7776 11.405 76.6876 11.4212C81.1807 11.4415 85.6804 11.7396 90.1675 11.7522C93.9307 11.7612 97.6879 11.526 101.449 11.4002C102.892 11.3531 104.323 11.2274 105.786 11.5367C106.616 11.7131 107.504 11.5361 108.37 11.518C109.323 11.4976 110.279 11.1096 111.261 11.626C110.596 12.2779 109.834 12.545 108.92 12.4507C108.199 12.3749 107.423 12.1371 106.764 12.2943C103.633 13.039 100.439 12.7067 97.2627 12.638C95.1239 12.5893 92.9905 13.3166 90.8368 12.4929C90.7125 12.4449 90.5467 12.4992 90.41 12.5244C84.5565 13.6259 78.5463 12.3404 72.6627 12.9601C69.9351 12.4266 67.2055 13.2781 64.4522 12.5283C63.3603 12.2323 62.1374 12.383 60.9881 12.4783C59.8625 12.5706 58.7578 12.8503 57.645 13.0508C56.4002 12.7398 55.1398 12.3928 53.9214 12.9272C53.6501 13.0493 53.5192 13.4665 53.2279 13.8823C53.8449 14.0047 54.296 14.2404 54.6284 14.1361C55.687 13.8114 56.7055 13.3608 57.7369 12.9593C57.9107 13.1911 58.0844 13.423 58.2582 13.6549C60.0734 14.457 61.9728 14.0498 63.8328 14.2342C65.4169 14.3936 67.0209 14.3183 68.6044 14.4735C71.0509 14.7123 73.4746 14.6626 75.8957 14.4486C80.069 14.0862 84.2596 14.2746 88.4508 14.4968C89.1753 14.5341 89.9492 14.7258 90.6161 14.5592C93.7357 13.7778 96.9394 14.5819 100.089 14.3414C103.244 14.1044 106.445 14.3558 109.601 14.2707C112.163 14.2041 114.736 14.3555 117.301 14.1659C119.728 13.985 122.193 14.2468 124.63 13.9802C126.165 13.8121 127.726 14.1263 129.294 13.7725C130.666 13.4641 132.179 13.7209 133.623 13.6484C135.212 13.5708 136.784 13.3264 138.375 13.2907C139.521 13.2634 140.681 13.4118 141.827 13.566C145.179 14.0267 148.232 13.8192 152.029 13.1738C154.282 12.7906 156.613 12.5624 158.905 12.6556C161.807 12.7707 164.65 12.4371 167.517 12.2779C169.701 12.1565 171.855 12.1485 173.949 12.8741C174.406 12.7332 174.803 12.5196 175.217 12.4982C180.401 12.2011 185.528 11.3496 190.753 11.5373C192.34 11.595 193.924 11.8471 195.731 12.0339C197.339 10.9998 199.259 10.6914 201.198 11.5332C205.025 11.1036 208.693 10.3771 212.495 10.778C213.488 10.8836 214.517 10.7061 215.511 10.5498C219.197 9.96464 223.007 10.2337 226.659 9.41205C227.048 9.32613 227.518 9.52582 227.944 9.60839C229.316 9.86566 230.517 9.4938 231.641 8.79798L231.529 8.73998L231.542 8.75533ZM136.841 16.7388C137.276 17.2045 137.831 17.3894 138.419 17.3043C140.123 17.0689 141.819 16.788 144.405 16.3933C141.21 16.1455 138.984 16.3987 136.779 16.8352C133.43 16.125 131.707 16.2108 128.271 17.314C128.828 17.4268 129.231 17.6093 129.608 17.5671C132.023 17.3158 134.431 17.0191 136.841 16.7388ZM197.292 14.3365C195.064 13.9722 193.509 14.0795 192.626 14.6583C194.036 14.9264 195.618 14.7849 197.372 14.2337C198.957 15.3175 200.74 15.1526 202.377 14.8622C204.882 14.4183 207.401 14.3906 209.926 14.2736C209.959 14.2695 209.953 13.8481 209.973 13.5839C208.864 13.2139 207.752 13.3595 206.638 13.463C203.527 13.7579 200.409 14.0452 197.296 14.3359L197.292 14.3365ZM38.9112 13.0634C38.5591 12.482 38.114 12.2836 37.2572 12.8325C37.9625 12.9904 38.462 12.9879 38.965 12.9766C39.7055 14.0336 40.965 13.929 41.738 14.2939C43.3632 14.14 44.7723 14 46.1779 13.869C47.0289 13.7894 47.8962 13.7796 48.7323 13.6386C49.0912 13.5775 49.4042 13.2645 49.7496 13.0614C49.5867 12.8662 49.491 12.667 49.3979 12.6616C46.5415 12.4986 43.6797 12.3025 40.8232 12.2578C40.1809 12.2483 39.5497 12.7821 38.9112 13.0634ZM177.742 15.3278C180.587 15.9565 181.726 15.8837 184.673 14.5537C181.694 14.6211 179.621 14.5305 177.667 15.43C176.967 15.2461 176.268 14.9185 175.572 14.9113C173.982 14.8921 172.384 14.9751 170.806 15.1231C169.223 15.2676 167.657 15.3636 166.047 15.2876C164.174 15.1977 162.299 15.4287 160.428 15.5623C160.188 15.5792 159.974 15.842 159.461 16.1797C161.372 17.067 162.883 15.7325 164.887 16.03C165.179 16.0953 165.921 16.443 166.598 16.368C169.588 16.0458 172.683 16.42 175.584 15.3996C176.222 15.1732 177.016 15.3372 177.737 15.3243L177.742 15.3278ZM111.254 17.6173C113.308 17.9214 114.563 17.5177 115.83 17.581C117.117 17.646 118.408 17.8796 119.689 17.8779C120.829 17.8725 121.96 17.6697 123.088 17.5011C123.382 17.4565 123.638 17.2096 124.571 16.685C119.878 17.044 115.86 16.3066 111.259 17.6167L111.254 17.6173ZM95.8405 18.0481C97.0938 18.0245 98.3752 17.7864 99.5888 18.0252C101.92 18.4808 104.04 17.7889 106.239 17.4334C104.258 17.4581 102.296 17.3959 100.317 17.1924C98.8211 17.0391 97.2097 16.9802 95.8412 18.0523L95.8405 18.0481ZM247.464 11.2888C243.926 11.6193 240.374 11.6266 235.999 12.8371C238.141 12.7841 239.291 12.8113 240.42 12.7142C241.703 12.6026 242.961 12.3124 244.244 12.2344C245.331 12.1681 246.438 12.2933 247.635 12.3399L247.464 11.2888ZM292.839 4.28557C294.93 4.27694 296.783 4.20897 298.56 3.35242C297.143 3.17253 295.829 2.58728 294.418 2.51203C293.992 2.48857 293.532 2.43551 293.14 2.55986C292.784 2.67123 292.503 3.00135 292.197 3.23336C292.39 3.55569 292.535 3.79111 292.839 4.28557ZM75.6715 17.862C78.267 17.9136 80.6869 18.3161 83.0642 17.6558C82.399 17.5351 81.7376 17.6166 81.0811 17.5498C80.3648 17.4734 79.6576 17.1849 78.9413 17.1381C78.0782 17.0841 77.2123 17.1612 76.3518 17.242C76.1655 17.2607 76.0123 17.5414 75.6715 17.862ZM218.597 14.2856C218.582 13.8399 218.573 13.4864 218.554 12.9567C216.894 13.1023 215.365 13.2232 213.844 13.3896C213.616 13.4178 213.424 13.6694 213.211 13.8222C213.998 14.5105 214.817 13.9367 215.617 13.9942C216.58 14.0613 217.541 14.1793 218.591 14.282L218.597 14.2856ZM148.384 16.3291C148.359 16.5011 148.339 16.6767 148.314 16.8486C149.725 16.7211 151.139 16.6102 152.545 16.4537C152.726 16.4315 152.868 16.1733 153.032 16.018C152.883 15.9392 152.744 15.8002 152.63 15.8143C151.214 15.9719 149.797 16.1508 148.384 16.325L148.384 16.3291ZM257.009 10.9481C261.144 11.0378 261.187 11.0325 262.352 10.2894L257.009 10.9481ZM87.827 17.9003C89.2572 18.3953 90.4199 17.8762 91.5975 17.4482C90.3721 17.4642 89.0973 17.0894 87.827 17.9003ZM229.358 12.6846C230.66 13.7611 230.711 13.7422 231.186 12.4931C230.514 12.12 229.903 12.1868 229.358 12.6846ZM193.094 54.2923C192.51 53.7184 191.987 53.728 191.501 54.3493C192.075 54.7725 192.639 55.2855 193.094 54.2923ZM70.0009 17.5562C69.2171 17.0069 68.5054 17.1073 67.8462 17.7078C68.6368 18.3281 69.3276 18.0403 70.0009 17.5562ZM267.943 9.78178C267.362 9.72683 267.095 9.67099 266.83 9.68255C266.455 9.70347 266.324 9.90963 266.491 10.1929C266.546 10.2876 266.76 10.3836 266.843 10.3523C267.144 10.235 267.42 10.0573 267.939 9.78236L267.943 9.78178ZM250.946 11.7798C251.048 11.7208 251.154 11.657 251.256 11.598C251.096 11.4194 250.944 11.2312 250.759 11.0809C250.731 11.0549 250.564 11.1937 250.462 11.2527C250.622 11.4272 250.787 11.6053 250.946 11.7798ZM149.627 30.6307C149.067 30.1425 148.753 30.2699 148.438 30.7774L149.627 30.6307ZM290.001 4.02745C290.178 4.18721 290.342 4.36116 290.534 4.49375C290.566 4.51506 290.789 4.36515 290.807 4.26587C290.829 4.16185 290.711 3.91466 290.663 3.91639C290.44 3.91854 290.223 3.98747 289.997 4.03217L290.001 4.02745ZM174.245 18.7309C173.957 18.5722 173.609 18.1972 173.557 18.8916C173.787 18.8381 174.016 18.7845 174.245 18.7309ZM220.692 54.0779L220.541 54.2863L220.903 54.2418L220.692 54.0779ZM167.017 62.0111C167.125 61.9598 167.238 61.9079 167.345 61.8524C167.199 61.7311 167.067 61.5744 166.899 61.498C166.826 61.4648 166.682 61.5923 166.57 61.6484C166.72 61.7691 166.866 61.8904 167.016 62.007L167.017 62.0111ZM269.322 49.3458C269.443 49.2844 269.627 49.2574 269.67 49.1635C269.783 48.9005 269.601 48.7414 269.219 48.7759C269.09 48.7917 268.907 48.8607 268.87 48.9582C268.755 49.2341 268.938 49.3762 269.322 49.3458ZM156.569 16.0971C156.564 16.2159 156.559 16.3347 156.554 16.4535C156.791 16.4454 157.028 16.4415 157.261 16.4128C157.271 16.4116 157.252 16.1184 157.237 16.116C157.015 16.0927 156.792 16.0949 156.569 16.0971ZM224.721 13.2689C225.308 13.8298 225.767 13.7859 226.141 13.077C225.531 12.6963 225.077 12.7396 224.721 13.2689ZM284.886 8.49123C284.968 8.57406 285.037 8.70062 285.133 8.72258C285.254 8.75403 285.447 8.74712 285.509 8.67625C285.711 8.43173 285.587 8.2655 285.198 8.28818C285.087 8.29339 284.987 8.42395 284.887 8.49537L284.886 8.49123ZM118.488 31.7167C118.249 31.6236 118.002 31.4473 117.782 31.466C117.638 31.4794 117.537 31.779 117.414 31.9503C117.543 31.9977 117.704 32.1173 117.8 32.0801C118.043 31.9952 118.261 31.8417 118.487 31.7125L118.488 31.7167ZM50.7978 17.1032C50.8093 17.1736 50.8119 17.2492 50.8186 17.3202C51.1272 17.3075 51.4352 17.2906 51.7437 17.2779C51.7357 17.1987 51.7276 17.1195 51.7195 17.0402C51.4123 17.0612 51.105 17.0822 50.793 17.1038L50.7978 17.1032Z"
          fill="#FFB703"/>
</svg>
